<svg width="80" height="80" viewBox="0 0 80 80" fill="none" xmlns="http://www.w3.org/2000/svg">
<path opacity="0.2" d="M51.8188 30L48.1813 50H28.1813L31.8188 30H51.8188Z" fill="#2FB6B2"/>
<path d="M70 27.5H54.8125L57.4594 12.9468C57.5657 12.2998 57.4136 11.6369 57.0357 11.1009C56.6579 10.565 56.0846 10.199 55.4394 10.0817C54.7942 9.9645 54.1288 10.1054 53.5866 10.4742C53.0444 10.843 52.6687 11.41 52.5406 12.0531L49.7281 27.5H34.8125L37.4594 12.9468C37.5657 12.2998 37.4136 11.6369 37.0357 11.1009C36.6579 10.565 36.0846 10.199 35.4394 10.0817C34.7942 9.9645 34.1288 10.1054 33.5866 10.4742C33.0444 10.843 32.6687 11.41 32.5406 12.0531L29.7312 27.5H15C14.337 27.5 13.7011 27.7634 13.2322 28.2322C12.7634 28.701 12.5 29.3369 12.5 30C12.5 30.663 12.7634 31.2989 13.2322 31.7677C13.7011 32.2366 14.337 32.5 15 32.5H28.8219L26.0938 47.5H10C9.33696 47.5 8.70107 47.7634 8.23223 48.2322C7.76339 48.701 7.5 49.3369 7.5 50C7.5 50.663 7.76339 51.2989 8.23223 51.7677C8.70107 52.2366 9.33696 52.5 10 52.5H25.1875L22.5406 67.0531C22.4222 67.7054 22.5677 68.3779 22.9451 68.9229C23.3225 69.4679 23.9009 69.8407 24.5531 69.9593C24.7005 69.9866 24.8501 70.0002 25 70C25.5849 69.9992 26.1511 69.7933 26.5999 69.4181C27.0486 69.043 27.3517 68.5224 27.4563 67.9468L30.2688 52.5H45.1875L42.5406 67.0531C42.4222 67.7054 42.5677 68.3779 42.9451 68.9229C43.3225 69.4679 43.9009 69.8407 44.5531 69.9593C44.7005 69.9866 44.8501 70.0002 45 70C45.5849 69.9992 46.1511 69.7933 46.5999 69.4181C47.0486 69.043 47.3517 68.5224 47.4563 67.9468L50.2688 52.5H65C65.663 52.5 66.2989 52.2366 66.7678 51.7677C67.2366 51.2989 67.5 50.663 67.5 50C67.5 49.3369 67.2366 48.701 66.7678 48.2322C66.2989 47.7634 65.663 47.5 65 47.5H51.1781L53.9062 32.5H70C70.663 32.5 71.2989 32.2366 71.7678 31.7677C72.2366 31.2989 72.5 30.663 72.5 30C72.5 29.3369 72.2366 28.701 71.7678 28.2322C71.2989 27.7634 70.663 27.5 70 27.5ZM46.0938 47.5H31.1781L33.9062 32.5H48.8219L46.0938 47.5Z" fill="#D91254"/>
</svg>
