<svg width="48" height="48" viewBox="0 0 48 48" fill="none" xmlns="http://www.w3.org/2000/svg">
<circle opacity="0.25" cx="24" cy="24" r="17" fill="#2FB6B2"/>
<path d="M25.875 33.75C25.875 34.1208 25.765 34.4834 25.559 34.7917C25.353 35.1 25.0602 35.3404 24.7175 35.4823C24.3749 35.6242 23.9979 35.6613 23.6342 35.589C23.2705 35.5166 22.9364 35.3381 22.6742 35.0758C22.412 34.8136 22.2334 34.4795 22.161 34.1158C22.0887 33.7521 22.1258 33.3751 22.2677 33.0325C22.4096 32.6899 22.65 32.397 22.9583 32.191C23.2667 31.985 23.6292 31.875 24 31.875C24.4973 31.875 24.9742 32.0725 25.3258 32.4242C25.6775 32.7758 25.875 33.2527 25.875 33.75ZM24 13.875C20.0625 13.875 16.875 16.7344 16.875 20.25V21C16.875 21.2984 16.9935 21.5845 17.2045 21.7955C17.4155 22.0065 17.7016 22.125 18 22.125C18.2984 22.125 18.5845 22.0065 18.7955 21.7955C19.0065 21.5845 19.125 21.2984 19.125 21V20.25C19.125 17.9756 21.3113 16.125 24 16.125C26.6888 16.125 28.875 17.9756 28.875 20.25C28.875 22.5244 26.6888 24.375 24 24.375C23.7016 24.375 23.4155 24.4935 23.2045 24.7045C22.9935 24.9155 22.875 25.2016 22.875 25.5V27C22.875 27.2984 22.9935 27.5845 23.2045 27.7955C23.4155 28.0065 23.7016 28.125 24 28.125C24.2984 28.125 24.5845 28.0065 24.7955 27.7955C25.0065 27.5845 25.125 27.2984 25.125 27V26.5463C28.5206 26.0625 31.125 23.4225 31.125 20.25C31.125 16.7344 27.9375 13.875 24 13.875ZM43.125 24C43.125 27.7826 42.0033 31.4802 39.9019 34.6253C37.8004 37.7704 34.8135 40.2217 31.3188 41.6692C27.8242 43.1167 23.9788 43.4955 20.2689 42.7575C16.559 42.0196 13.1513 40.1981 10.4766 37.5234C7.80191 34.8487 5.98043 31.441 5.24249 27.7311C4.50455 24.0212 4.88329 20.1758 6.33081 16.6812C7.77834 13.1865 10.2296 10.1996 13.3747 8.09814C16.5198 5.99666 20.2174 4.875 24 4.875C29.0704 4.88095 33.9315 6.89782 37.5168 10.4832C41.1022 14.0685 43.1191 18.9296 43.125 24ZM40.875 24C40.875 20.6624 39.8853 17.3998 38.0311 14.6248C36.1768 11.8497 33.5413 9.68676 30.4578 8.40953C27.3743 7.1323 23.9813 6.79812 20.7079 7.44925C17.4344 8.10037 14.4276 9.70756 12.0676 12.0676C9.70757 14.4276 8.10038 17.4344 7.44926 20.7079C6.79813 23.9813 7.13231 27.3743 8.40954 30.4578C9.68677 33.5413 11.8497 36.1768 14.6248 38.031C17.3998 39.8853 20.6624 40.875 24 40.875C28.474 40.87 32.7634 39.0905 35.927 35.9269C39.0906 32.7633 40.87 28.474 40.875 24Z" fill="#2FB6B2"/>
</svg>
